<svg class="logo" width="57" height="66" viewBox="0 0 57 66" fill="none" xmlns="http://www.w3.org/2000/svg">
<g clip-path="url(#clip0)">
<path d="M11.5335 64.6757C8.34022 64.6757 6.83047 63.0038 6.26271 62.1361C4.90938 60.0689 5.14922 57.2385 6.84437 55.2531C6.87913 55.2134 6.91389 55.1748 6.95213 55.1384C8.90218 53.2144 13.8497 46.6756 19.131 39.5507C18.1971 38.5887 17.1497 37.5608 15.9852 36.4455C15.9516 36.4137 15.9191 36.3807 15.889 36.3467C14.8543 35.195 13.8196 34.0978 12.8208 33.0369C8.15136 28.0826 4.46329 24.1686 5.68685 20.0332C5.70771 19.9605 5.73436 19.889 5.76448 19.8197C6.81424 17.4243 11.0538 14.1009 13.4871 12.3336C16.3189 10.2767 20.3858 7.67802 22.5317 7.12034C23.5305 6.86024 24.5559 7.44404 24.8201 8.42424C25.0854 9.40329 24.4899 10.4085 23.4899 10.6674C22.417 10.9457 19.328 12.6574 15.7152 15.281C11.9356 18.0263 9.75149 20.2183 9.2521 21.1667C8.7643 23.3225 12.0723 26.8332 15.5704 30.545C16.5703 31.6058 17.6027 32.7019 18.6513 33.8672C19.6084 34.7849 20.5168 35.6663 21.3672 36.5261C22.3382 35.2109 23.3092 33.8933 24.2616 32.6008C33.1278 20.5659 38.6559 13.1151 40.4924 11.6397C41.0543 11.1876 41.833 11.0968 42.4876 11.4034C43.1434 11.7112 43.5571 12.3632 43.5513 13.0753C43.5327 15.0141 43.7436 25.1 45.0587 35.4937C47.317 53.3336 51.0549 58.4084 53.0814 59.844C53.9191 60.438 54.1068 61.5852 53.502 62.4064C52.896 63.2276 51.7258 63.4116 50.888 62.8187C46.3472 59.5998 43.2245 50.8099 41.344 35.9457C40.4762 29.0912 40.0799 22.3491 39.9142 17.9047C36.7695 21.8914 31.8243 28.6028 27.2962 34.7486C26.1676 36.2796 25.0495 37.7982 23.9522 39.2838C27.3773 43.2125 29.3146 46.9141 28.9172 51.6776C28.4236 57.5963 23.6081 61.8203 14.6052 64.2339C13.4407 64.5462 12.4222 64.6757 11.5335 64.6757ZM9.67386 57.6587C9.07482 58.4004 8.96127 59.4624 9.41432 60.1552C9.99481 61.0423 11.5671 61.2445 13.618 60.6947C20.942 58.7321 24.834 55.5973 25.1862 51.3789C25.4516 48.1976 24.3601 45.5955 21.6789 42.3584C16.3409 49.5537 11.7919 55.5382 9.67386 57.6587Z" fill="white"/>
<path d="M2.91181 2.91007C2.47731 15.43 2.04396 27.9498 1.60946 40.4697C1.52951 42.7652 5.15849 42.7572 5.23844 40.4697C5.67294 27.9498 6.10629 15.43 6.54079 2.91007C6.61958 0.615763 2.9906 0.622578 2.91181 2.91007Z" fill="white"/>
<path d="M51.4371 30.3781C42.6566 31.2753 33.875 32.1726 25.0946 33.0699C23.4852 33.2346 24.0309 36.6897 25.6357 36.5261C34.4161 35.6288 43.1977 34.7316 51.9782 33.8343C53.5876 33.6696 53.0419 30.2145 51.4371 30.3781Z" fill="white"/>
</g>
<defs>
<clipPath id="clip0">
<rect width="57" height="66" fill="white"/>
</clipPath>
</defs>
</svg>
